<svg width="20" height="40" viewBox="0 0 20 40" fill="none" xmlns="http://www.w3.org/2000/svg">
<path d="M1.80038 3.05176e-05C2.03596 -0.00135422 2.26949 0.0445023 2.48758 0.134968C2.70567 0.22543 2.90403 0.358727 3.07129 0.527206L18.4295 16.1425C19.4351 17.165 20 18.5511 20 19.9963C20 21.4415 19.4351 22.8276 18.4295 23.8501L3.07129 39.4654C2.73422 39.8077 2.27706 40 1.80038 40C1.3237 40 0.866547 39.8077 0.529482 39.4654C0.192417 39.1231 0.00305557 38.6588 0.00305557 38.1747C0.00305557 37.6906 0.192417 37.2264 0.529482 36.8841L15.9056 21.287C16.0734 21.118 16.2066 20.9169 16.2974 20.6954C16.3883 20.4739 16.4351 20.2363 16.4351 19.9963C16.4351 19.7563 16.3883 19.5187 16.2974 19.2972C16.2066 19.0757 16.0734 18.8746 15.9056 18.7056L0.529482 3.10854C0.361708 2.93955 0.228539 2.73849 0.137663 2.51697C0.0467854 2.29545 0 2.05785 0 1.81787C0 1.5779 0.0467854 1.34029 0.137663 1.11877C0.228539 0.897251 0.361708 0.696198 0.529482 0.527206C0.696739 0.358727 0.895098 0.22543 1.11319 0.134968C1.33128 0.0445023 1.56481 -0.00135422 1.80038 3.05176e-05Z" fill="white"/>
</svg>
