<svg width="20" height="40" viewBox="0 0 20 40" fill="none" xmlns="http://www.w3.org/2000/svg">
<path d="M18.1996 40C17.964 40.0014 17.7305 39.9555 17.5124 39.865C17.2943 39.7746 17.096 39.6413 16.9287 39.4728L1.57048 23.8575C0.564851 22.835 0 21.4489 0 20.0037C0 18.5585 0.564851 17.1724 1.57048 16.1499L16.9287 0.534612C17.2658 0.192306 17.7229 0 18.1996 0C18.6763 0 19.1335 0.192306 19.4705 0.534612C19.8076 0.876919 19.9969 1.34119 19.9969 1.82528C19.9969 2.30937 19.8076 2.77364 19.4705 3.11595L4.09438 18.713C3.92661 18.882 3.79344 19.0831 3.70257 19.3046C3.61169 19.5261 3.5649 19.7637 3.5649 20.0037C3.5649 20.2437 3.61169 20.4813 3.70257 20.7028C3.79344 20.9243 3.92661 21.1254 4.09438 21.2944L19.4705 36.8915C19.6383 37.0605 19.7715 37.2615 19.8623 37.483C19.9532 37.7045 20 37.9421 20 38.1821C20 38.4221 19.9532 38.6597 19.8623 38.8812C19.7715 39.1027 19.6383 39.3038 19.4705 39.4728C19.3033 39.6413 19.1049 39.7746 18.8868 39.865C18.6687 39.9555 18.4352 40.0014 18.1996 40Z" fill="white"/>
</svg>
